Coordinates
version=1
nRows=7
nColumns=33
inDegrees=yes

Units are S.I. units (second, meters, Newtons, ...)
Angles are in degrees.

endheader
time	ground_thorax_rot_x	ground_thorax_rot_y	ground_thorax_rot_z	ground_thorax_tx	ground_thorax_ty	ground_thorax_tz	clav_prot_r	clav_elev_r	scapula_abduction_r	scapula_elevation_r	scapula_upward_rot_r	scapula_winging_r	shoulder_elv_r	plane_of_elev_r	axial_rot_r	elbow_flexion_r	pro_sup_r	wrist_flex_r	wrist_dev_r	clav_prot_l	clav_elev_l	scapula_abduction_l	scapula_elevation_l	scapula_upward_rot_l	scapula_winging_l	shoulder_elv_l	plane_of_elev_l	axial_rot_l	elbow_flexion_l	pro_sup_l	wrist_flex_l	wrist_dev_l
      7.55000000	     27.24564164	     34.17654739	     44.97005936	     26.85024462	    774.06524871	    -42.93905393	     13.14167252	     35.80749625	     27.28305467	     45.00000000	    -45.00000000	  -1163.80054939	  -4068.28293601	    159.38912477	     22.98498716	   1441.26118087	    166.62378874	     11.84038185	     13.10078935	    -12.26123147	    -45.00000000	    -34.86412153	     45.00000000	    -45.00000000	  -3499.04837853	   -452.42433568	    137.09056086	   -139.46194088	    352.06200559	     51.26317289	      9.38807027	    -15.80254623
      7.56000000	     27.23805008	     34.10036900	     44.77348487	     23.79048520	    774.24727666	    -42.71347822	     13.17854751	     35.71381863	     27.16610816	     45.00000000	    -45.00000000	  -1163.84054505	  -4068.20604646	    159.48747550	     23.18380363	   1441.22630019	    166.72294608	     11.85956326	     13.12356582	    -12.15255666	    -45.00000000	    -34.90432028	     45.00000000	    -45.00000000	  -3498.91647934	   -452.35670035	    137.12990910	   -139.58842394	    351.96664661	     51.14944800	      9.45158587	    -15.79782293
      7.57000000	     27.22996476	     34.00817201	     44.59133021	     20.70915703	    774.47778320	    -42.47643530	     13.21263778	     35.61397620	     27.07351369	     45.00000000	    -45.00000000	  -1163.87817881	  -4068.11290816	    159.59958805	     23.41076555	   1441.20405620	    166.84030262	     11.87310466	     13.15102853	    -12.05075683	    -45.00000000	    -34.99203797	     45.00000000	    -45.00000000	  -3498.75674562	   -452.30017076	    137.19517640	   -139.86811994	    351.92136580	     51.01735606	      9.51939687	    -15.81699427
      7.58000000	     27.26164696	     33.93653533	     44.35751823	     17.61009254	    774.75868261	    -42.22903710	     13.14020601	     35.63281856	     26.99774192	     45.00000000	    -45.00000000	  -1163.95867483	  -4068.04288446	    159.73426517	     23.58694208	   1441.16983258	    166.98238181	     11.90583689	     13.17544225	    -11.98567637	    -45.00000000	    -35.00247754	     45.00000000	    -45.00000000	  -3498.63900803	   -452.25321297	    137.25271943	   -140.04057195	    351.90153076	     50.87314627	      9.57288820	    -15.82923806
      7.59000000	     27.24489627	     33.83461822	     44.15031324	     14.50033359	    775.09105762	    -41.97374267	     13.24745014	     35.49379012	     26.87878461	     45.00000000	    -45.00000000	  -1164.10384919	  -4067.99085190	    159.68022144	     23.81569563	   1441.16948163	    167.09669269	     11.90717824	     13.23028300	    -11.87293292	    -45.00000000	    -35.14357819	     45.00000000	    -45.00000000	  -3498.44907878	   -452.23314741	    137.25158504	   -140.24257041	    351.82349174	     50.71470724	      9.67230776	    -15.87207229
      7.60000000	     27.26471264	     33.70799441	     43.93413192	     11.37378229	    775.47796080	    -41.71292990	     13.21141919	     35.43220984	     26.75949010	     45.00000000	    -45.00000000	  -1164.21131914	  -4067.93388336	    159.68720490	     23.99532991	   1441.12976325	    167.28033157	     11.93625350	     13.26846925	    -11.79722922	    -45.00000000	    -35.19177664	     45.00000000	    -45.00000000	  -3498.29105489	   -452.18680033	    137.28320990	   -140.39124038	    351.76224733	     50.55205865	      9.76331843	    -15.90714508
      7.61000000	     27.29921814	     33.58202548	     43.68244992	      8.23764920	    775.92242117	    -41.45065606	     13.15126906	     35.43778700	     26.66320357	     45.00000000	    -45.00000000	  -1164.33167468	  -4067.84634240	    159.68100683	     24.12247277	   1441.11823228	    167.47494487	     11.96105622	     13.30814900	    -11.73306340	    -45.00000000	    -35.22928982	     45.00000000	    -45.00000000	  -3498.17508003	   -452.12290260	    137.29120318	   -140.50044925	    351.70348863	     50.39575985	      9.84443863	    -15.93424949
